<?xml version="1.0" encoding="utf-8"?>
<!-- Generator: Adobe Illustrator 28.3.0, SVG Export Plug-In . SVG Version: 6.00 Build 0)  -->
<svg version="1.1" id="Layer_1" xmlns="http://www.w3.org/2000/svg" xmlns:xlink="http://www.w3.org/1999/xlink" x="0px" y="0px"
	 viewBox="0 0 168.3 137.9" style="enable-background:new 0 0 168.3 137.9;" xml:space="preserve">
<style type="text/css">
	.st0{fill:#FCD205;}
	.st1{fill:#FDE042;}
	.st2{fill:#FBD009;}
	.st3{fill:#CA9B2E;}
	.st4{fill:#FCDE41;}
	.st5{fill:#FAD00C;}
	.st6{fill:#FBED96;}
	.st7{fill:#FDDF43;}
	.st8{fill:#EBB40E;}
	.st9{fill:#FDDF42;}
	.st10{fill:#FEF09C;}
</style>
<g>
	<path class="st0" d="M110.6,33.7c3.5,4.7,6.6,9.7,9.3,15c0.8,1.6,1.6,3.1,2.3,4.7c0.6,1.4,1.3,2.4,3.1,1.7c0.7-0.3,1.3,0.3,1.8,0.8
		c0.5,0.7,1.1,1.4,1.4,2.2c1.5,4.3,4.6,5.5,8.9,5c4-0.5,8,0.4,11.9,1.1c1.7,0.3,3.4,0.9,4.9,1.6c3.7,1.8,5,5.3,3.6,9.2
		c-0.5,1.3-1,2.6-2,3.6c-7.5,7.2-14.5,14.9-22.8,21.2c-11.9,8.9-25.5,12-40,12.8c-9.5,0.5-19-1.4-28.5-0.6
		c-10.1,0.7-19.7,3.9-29.5,6.2c-3.9,0.9-7.8,1.8-11.9,1.3c-3-0.4-5.9-1.2-7.9-3.6c-1.2-1.5-2.4-3.3-1.3-5.2c1.3-2.2,3.1-0.5,4.6-0.2
		c2.4,0.4,6.1,2.4,6.9-0.6c1-3.8-3.5-2.6-5.6-3.4c-2-0.8-4-1.2-5.4-2.9c-2.7-6.2-3.7-12.8-4.2-19.5c-0.2-3.2,0.1-6.5,0.1-9.7
		c1-1.7-0.2-3.7,0.8-5.3c0-0.3,0-0.6,0.2-0.9c1.6-0.2,2,1.1,2.6,2.1c4.3,8.4,11.9,11.3,20.5,12c22,1.8,41.3-5.2,58.6-18.5
		c4.4-3.4,8.1-7.6,11-12.3c2.9-4.7,4.6-9.6,3.6-15.3C107.3,34.6,106.6,31.2,110.6,33.7z"/>
	<path class="st1" d="M110.6,33.7c-2.2-0.2-2.6,0.1-2.1,1.4c1.7,4.6,0.8,8.9-1.2,13.1c-3.2,6.9-7.9,12.5-14,17.1
		c-5,3.8-10.2,7.2-15.8,10c-8.3,4.1-17,6.8-26.1,8.5c-1,0.2-2.1,0.1-3.1,0.1c-4.2,0-8.3-0.1-12.5,0c-7.1,0.2-13.2-2.5-18.8-6.6
		c-2.1-1.6-3.3-4-4.5-6.3c-0.5-0.9-0.3-2.1-1.3-2.7c-0.3-2.1,0.7-4,1.3-5.9c1-3.2,2.4-6.3,3-9.7c0.1-0.4,0.6-0.8,0.9-1.2
		c4.5-6.4,9.5-12.3,16.3-16.4c1.8-1.1,3.6-3.1,6-1.1c0,2.2-1.7,3.3-2.8,4.8c-4,5.2-2.6,9,3.8,10.7c2.7,0.7,5.5,0.8,8.3,0.4
		c11.5-1.8,21.8-5.9,29.5-15c4.8-1,5.9,3.7,8.7,5.3c-1.2-1.5-3.2-2.7-4.2-4.7c-0.4-0.4,1.1-1-0.1-1.4c-0.4-0.3-0.7-0.6-1-1
		c-1-4.1-2.1-8-7.1-9c-1-0.2-1.6-1.3-1.2-2.5c1.5-2,3.7-1.6,5.7-1.7c9.9-0.6,18.8,2.2,26.9,7.7C107.5,29.1,109.4,31.1,110.6,33.7z"
		/>
	<path class="st2" d="M82.2,34.9c0.7,1.7,2.2,2.6,3.4,3.9c1.3,1.4,2.5,2.8,3.8,4.1c-0.9,1.1-1.4,0.3-1.7-0.1
		c-2.9-2.9-5.8-5.9-9.5-7.9c-3.7,0.8-6.7-1.5-10-2.3c-8.3-2-16.5-1.6-24.7,0.6c-1.6,0.4-3.2,1.5-5,0.6c-1.3,0-2.4,0.5-3.3,1.2
		c-4.8,3.3-9.7,6.4-13.1,11.4c-1.2,1.8-3.1,3.2-4.2,5.2c-0.3,0.5-0.9,0.3-1.3-0.1c2.1-6.3,6.3-11.1,11.3-15.2
		c8-6.4,17.1-10.5,27.2-12.2c9.8-2.4,17.8,1.4,25,7.6c0.8,0.6,1.4,1.5,2.2,2.1l-0.1-0.1c0.3,0.2,0.4,0.4,0.3,0.7
		C82.3,34.8,82.2,34.9,82.2,34.9z"/>
	<path class="st3" d="M64.4,111.1c4.5,0,9-0.5,13.5,0.8c7.1-0.1,14.2,0.6,21.3-0.6c3.9-0.7,7.8-1.1,11.7-2c9.7-2.3,18-6.9,25.6-13.3
		c5.5-4.6,10.5-9.7,15.5-14.6c1.1-1.1,1.9-2.5,3.7-2.7c-0.9,2.3-2.7,4-4.4,5.8c-5.9,6.4-12.6,12-19.5,17.2
		c-7.5,5.7-16.2,8.6-25.3,10.3c-11.2,2.1-22.5,1.9-33.7,0.6c-3.9-0.4-7.6,0.3-11.3,1.1c-8.8,2-17.5,4.2-26.3,6.3
		c-3.9,0.9-7.8,1.6-11.8,1.8c-2.1,0.1-4.2,0-6.1-0.8c0.4-1.4,1.6-1.9,2.9-1.7c9.1,0.8,17.5-2.5,26-4.6
		C52.2,113.4,58.3,112.2,64.4,111.1z"/>
	<path class="st4" d="M64.4,111.1c-1.3,1.5-3.3,0.9-4.9,1.3c-7.5,1.9-15,3.8-22.5,5.5c-5.7,1.4-11.3,2.9-17.3,2.5
		c-0.8,0-1.6,0.4-2.5,0.6c-3-1.2-3.5-4-4.4-6.6c-0.8-2.1-0.6-4.2,0.6-6c1.1-1.6,1-3.1,0.8-4.8c3.5,0.8,6.9,2.1,10.6,2.2
		c1.9,0,2.7,1.1,2.9,3c0,0.5,0,1,0,1.6c-0.1,1.9-0.6,2.5-2.4,2.6c-3.4,0.3-6.6-0.2-9.5-2c-0.4-0.2-0.9-0.7-1.3-0.1
		c-0.2,0.4-0.4,1-0.3,1.5c0.5,2.4,2.2,3.8,4.4,4.7c4,1.6,8.1,1.5,12.2,0.5c6.9-1.6,13.7-3.5,20.6-5C55.8,111.9,60,110.8,64.4,111.1z
		"/>
	<path class="st5" d="M105.1,27.6c-0.4,0.6-1,0.9-1.7,0.6c-1.9-1.1-3.8-2.3-5.8-3.3c-4.7-2.3-9.7-3.3-14.9-3.5c-2.4-0.1-4.8,0-7.2,0
		c-1,0-2.1,0.1-2.8,1c-5.2,2.5-10.3,2.9-15.5,0.1c2.8-1.3,5.6-2.7,8.5-3.9c11.9-4.7,23.1-3.2,33.5,3.9
		C101.4,24,103.5,25.5,105.1,27.6z"/>
	<path class="st6" d="M57.2,22.5c0.4,0.6,0.9,1,1.7,1c2.1-0.1,4.2,0.1,6.2-0.3c2.6-0.6,5.1-0.7,7.7-0.7c0.9,1.4,2.6,0.8,3.8,1.4
		c2.7,1.2,4.9,2.7,4.6,6.1c-0.1,1.5,0.4,2.7,1,4c-1.3,0-2.2-0.9-3.1-1.6c-5.1-4.2-11.1-6.3-17.4-7.7c-2.2-0.5-4.5-0.3-6.7-0.4
		C55.4,23.3,56.1,22.6,57.2,22.5z"/>
	<path class="st1" d="M11.1,69.3c0.1,1.8,0.6,3.7-0.8,5.3C10,72.7,9.9,70.9,11.1,69.3z"/>
	<path class="st7" d="M88.5,90.3c1.2,0,2.4-0.2,3.5-0.8c6.5-3.3,13.2-6.2,19.1-10.5c3.8-2.8,7-6.2,10.1-9.7c1.8-2.1,2.7-4.8,3.1-7.6
		c0.1-1,1.2-1.3,2-0.7c4.2,2.8,4.9,4.7,2.4,9c-2.8,4.8-6,9.1-10.6,12.5c-6.3,4.7-13,8.5-20.1,11.9c-2.3,1.1-4.7,2.3-7.4,2.1
		C87.9,95,86.7,93.1,88.5,90.3z"/>
	<path class="st8" d="M88.5,90.3c-0.3,2.4,1.1,4.2,2.1,6.1c0.2,0.8,0.8,1.7-0.3,2.2c-2.8,1.3-5.7,2.6-8.6,3.7
		c-3.4,1.2-6.9,2.1-10.4,3.2c-1.4,0.4-2.7,0.6-3.8-0.8c-1.6-2-1.6-4.1,0-6.1c0-0.9,0-1.7,0.1-2.6c0.1-1.3,0.8-2.2,2.1-2.6
		c4.3-1.5,8.7-2.9,13-4.7C85.2,87.7,86.9,88.3,88.5,90.3z"/>
	<path class="st9" d="M67.5,98.6c0,2,0,4.1,0,6.1c-2.9,0.7-5.7,1.5-8.6,2c-6.3,1.2-12.4,2.9-18.8,3.4c-2.5,0.2-5.1,1.1-7.7,0.8
		c-1.8-0.2-2.5-0.8-2.4-2.6c0-1.6,0.6-2.3,2.1-2.4c11.1-1,21.8-3.7,32.4-6.8C65.4,98.8,66.4,98.8,67.5,98.6z"/>
	<path class="st10" d="M38.2,33.9c3.3-1.9,6.9-3,10.8-3.2c2.2-0.1,4.4-0.7,6.6-0.8C63.5,29.7,71,31.2,78,35c0.1,1.3-0.7,2.2-1.5,3.1
		c-4.2,4.6-9.5,7.4-15.2,9.7c-5.8,2.4-11.8,3.9-18.1,3.8c-2.5,0-4.8-0.7-7-1.6c-3.5-1.4-5.5-4-3.4-9.3c0.6-1.5,1.7-2.6,2.8-3.7
		C36.5,36,37.4,34.9,38.2,33.9z"/>
	<path class="st6" d="M82.2,34.9c0-0.3,0-0.7-0.1-1C82.9,34.1,83,34.5,82.2,34.9z"/>
</g>
</svg>
