<?xml version="1.0" encoding="utf-8"?>
<!-- Generator: Adobe Illustrator 28.3.0, SVG Export Plug-In . SVG Version: 6.00 Build 0)  -->
<svg version="1.1" id="Layer_1" xmlns="http://www.w3.org/2000/svg" xmlns:xlink="http://www.w3.org/1999/xlink" x="0px" y="0px"
	 viewBox="0 0 199 121.3" style="enable-background:new 0 0 199 121.3;" xml:space="preserve">
<style type="text/css">
	.st0{fill:#3EA437;}
	.st1{fill:#30A139;}
	.st2{fill:#84C038;}
	.st3{fill:#1D7A3A;}
	.st4{fill:#DBDCDC;}
	.st5{fill:#85C03A;}
	.st6{fill:#85C13A;}
	.st7{fill:#84C039;}
	.st8{font-family:'Montserrat-ExtraBold';}
	.st9{font-size:27.6874px;}
	.st10{fill:none;stroke:#278B2F;stroke-width:3;stroke-miterlimit:10;}
	.st11{fill:#FFF025;}
	.st12{font-family:'Montserrat-Bold';}
	.st13{font-size:7.6308px;}
	.st14{letter-spacing:5;}
	.st15{fill:none;stroke:#FFF025;stroke-width:0.5;stroke-miterlimit:10;}
	.st16{fill:#278B2F;}
	.st17{fill:#FCD205;}
	.st18{fill:#FDE042;}
	.st19{fill:#FBD009;}
	.st20{fill:#CA9B2E;}
	.st21{fill:#FCDE41;}
	.st22{fill:#FAD00C;}
	.st23{fill:#FBED96;}
	.st24{fill:#FDDF43;}
	.st25{fill:#EBB40E;}
	.st26{fill:#FDDF42;}
	.st27{fill:#FEF09C;}
</style>
<g>
	<path class="st0" d="M179.4,68.6c0,0.7,0,1.5,0.1,2.2c0,1.7,0.1,3.3,0.1,5c0,0.4,0.1,0.6,0.4,0.8c2,1.3,4,2.6,5.9,4
		c0.6,0.5,1.2,0.9,1.9,1.4c0.1,0.1,0.3,0.2,0.3,0.4c-0.4-0.1-0.7-0.1-1.1-0.2c-2.3-0.4-4.7-0.8-7-1.1c-2.2-0.3-4.4-0.6-6.7-0.8
		c-3.6-0.3-7.1-0.6-10.7-0.7c-3.2-0.1-6.5-0.1-9.7-0.1c-2.3,0.1-4.6,0.2-7,0.3c-3.1,0.2-6.2,0.5-9.3,0.9c-7.4,1-14.7,2.5-21.9,4.7
		c-8.4,2.5-16.4,5.9-24.1,10.1c-9.1,5-17.4,11.1-24.9,18.3c-1.4,1.4-2.8,2.8-4.2,4.2c-0.1,0.1-0.2,0.3-0.4,0.4
		c-0.1,0.1-0.3,0.1-0.4,0c-0.2-0.2-0.4-0.5-0.6-0.7c-2.6-3.1-5.4-6-8.3-8.8c-5.8-5.5-12.1-10.3-18.9-14.5
		c-8.4-5.2-17.3-9.3-26.5-12.5c-0.9-0.3-1.7-0.6-2.6-0.9c-0.2-0.1-0.4-0.2-0.6-0.2c0.1-0.3,0.3-0.4,0.5-0.5C5.5,79,7.2,77.9,9,76.8
		c1.2-0.7,2.3-1.4,3.5-2c0.3-0.2,0.4-0.4,0.4-0.7c0-2,0.1-4,0.1-6c0.1-3.9,0.2-7.7,0.3-11.6c0-0.2,0-0.3,0-0.5
		c-0.2-0.4-0.2-0.9-0.2-1.3c0-3.9,0.2-7.8,0.2-11.7c0-2.1,0.1-4.3,0.1-6.4c0-0.5-0.1-1.2,0.6-1.2c0.7,0,0.6,0.7,0.6,1.1
		c0.2,3.5,0.2,7,0.2,10.5c0,2.4,0.3,4.9,0.2,7.3c0,0.5,0,1-0.3,1.5c0,1.4,0,2.9,0,4.3c0,3.4,0.1,6.7,0.2,10.1c0,0.9,0,1.8,0.1,2.7
		c0,0.2,0,0.3,0.1,0.5c0.3,0,0.5-0.2,0.8-0.3c3.4-1.8,6.9-3.4,10.5-4.8c6.3-2.6,12.8-4.7,19.5-6.5c4.8-1.3,9.6-2.3,14.5-3.2
		c2.3-0.4,4.6-0.8,7-1.1c2-0.3,4-0.6,6.1-0.8c2.1-0.2,4.2-0.4,6.3-0.6c2.4-0.2,4.9-0.4,7.3-0.5c2.9-0.1,5.8-0.2,8.7-0.2
		c3,0,6,0.1,8.9,0.2c3,0.1,6,0.3,8.9,0.6c2.8,0.3,5.6,0.6,8.5,0.9c9.8,1.3,19.4,3.4,28.8,6.4c6.5,2.1,12.9,4.5,19,7.6
		c2.4,1.2,4.7,2.4,7,3.7c0.2,0.1,0.5,0.3,0.8,0.4c0.2-0.2,0.1-0.5,0.1-0.7c0.1-1.8,0.1-3.6,0.2-5.3c0-0.1,0-0.2,0-0.3
		c0-1.3,0.1-2.6-0.1-3.9c-0.2-1.5-0.1-3,0-4.5c0.1-0.8,0.1-1.5,0.1-2.3c-0.1-3.2,0.3-6.5,0.2-9.7c0-0.6,0.1-1.2,0.2-1.8
		c0-0.2,0.1-0.4,0.4-0.5c0.3,0,0.5,0.2,0.5,0.5c0.1,0.6,0.2,1.2,0.2,1.8c-0.1,5.2,0.3,10.4,0.2,15.6C179.5,65.3,179.3,67,179.4,68.6
		z"/>
	<path class="st1" d="M90.7,52.1c-0.3,0.1-0.6,0.1-0.8,0.1c-3,0.1-6,0.2-9,0.4c-3.2,0.2-6.5,0.5-9.7,0.9c-0.1,0-0.3,0-0.4,0
		c-0.2,0-0.3,0-0.5-0.2c-0.2-0.2-0.3-0.3-0.5-0.5c-9.6-10.8-19.2-21.5-28.9-32.3c-0.2-0.2-0.3-0.3-0.5-0.5c-0.3,0.1-0.4,0.3-0.6,0.5
		c-2.6,2.9-5.1,5.7-7.7,8.6c-2.4,2.7-4.8,5.4-7.2,8.1c-0.1,0.1-0.2,0.2-0.3,0.3c-0.2,0-0.2-0.1-0.2-0.2c0-0.7,0.1-1.3,0-2
		c0-0.5,0.2-0.8,0.5-1.1c2.7-3,5.5-6.1,8.2-9.2c1.8-2,3.6-4,5.4-6c0.3-0.4,0.6-0.5,1.1-0.5c7.6,0,15.3,0,22.9,0c0.1,0,0.3,0,0.4,0
		c0.2,0,0.3,0.1,0.3,0.3c0,0.2,0,0.5,0,0.7c0,2,0,4,0,6c0,0.2,0,0.5,0,0.7c0,0.1,0.1,0.2,0.2,0.2c0.1,0,0.2,0,0.3,0c1,0,1.9,0,2.9,0
		c0.4,0,0.4,0,0.4-0.5c0-0.2,0-0.5,0-0.7c0-5,0-10,0-15c0-1.1-0.1-1,1.1-1c2.3,0,4.6,0,7,0c0.2,0,0.5,0,0.7,0c0.1,0,0.2,0.1,0.2,0.2
		c0,0.3,0,0.5,0,0.8c0,2.4,0,4.9,0,7.3c0,0.2,0,0.5,0,0.7c0,0.2,0.1,0.3,0.3,0.3c0.2,0,0.5,0,0.7,0c2.3,0,4.6,0,6.9,0
		c0.3,0,0.6,0,0.9,0c0.4,0.2,0.4,0.7,0.5,1.1c1.1,7.2,2.3,14.4,3.4,21.6c0.5,3.1,1,6.2,1.5,9.2C90.2,51.1,90.3,51.6,90.7,52.1z"/>
	<path class="st1" d="M153.5,22.2c-1.1-1.2-2.2-2.5-3.2-3.7c-4.2-4.7-8.3-9.3-12.5-14c-0.2-0.2-0.3-0.3-0.5-0.5
		c-0.3,0-0.4,0.2-0.5,0.4c-6.7,7.5-13.3,14.9-20,22.4c-3.8,4.3-7.7,8.6-11.5,12.9c-0.1,0.1-0.2,0.2-0.4,0.3c-0.7-0.3-0.9-1-1.3-1.5
		c-4-5.3-8.1-10.6-12.1-15.9c-1.4-1.8-2.7-3.6-4.1-5.4c-0.2-0.3-0.5-0.6-0.6-0.9c0.1-0.3,0.3-0.4,0.5-0.6c3.8-4.3,7.6-8.5,11.4-12.8
		c0.3-0.4,0.7-0.5,1.2-0.5c12.6,0,25.3,0,37.9,0c0.5,0,0.9,0.2,1.2,0.6c4.1,4.6,8.2,9.2,12.3,13.8c5.6,6.3,11.3,12.6,16.9,18.9
		c0.3,0.3,0.7,0.7,0.9,1.1c0.2,0.4-0.1,0.9-0.2,1.3c-0.1,0.3,0,0.6-0.2,0.9c-0.4-0.1-0.5-0.4-0.7-0.6c-4.6-5.1-9.2-10.3-13.8-15.4
		C154,22.7,153.7,22.5,153.5,22.2C153.5,22.2,153.5,22.2,153.5,22.2z"/>
	<path class="st1" d="M153.5,22.2C153.5,22.2,153.5,22.2,153.5,22.2c-0.2,0.2-0.4,0.5-0.6,0.7c-5.4,6-10.8,12.1-16.2,18.1
		c-3.7,4.1-7.4,8.3-11.1,12.4c-0.7,0.8-0.4,0.7-1.6,0.6c-1.6-0.2-3.2-0.4-4.9-0.6c-2-0.2-4-0.4-6-0.6c-2-0.2-3.9-0.3-5.9-0.4
		c-0.7,0-1.4-0.1-2.1-0.1c-0.1-0.3,0.1-0.4,0.2-0.5c2.6-3,5.3-5.9,7.9-8.9c6-6.7,11.9-13.3,17.9-20c0.8-0.9,0.5-0.7,1.6-0.7
		c6.9,0,13.8,0,20.6,0C153.4,22.2,153.5,22.2,153.5,22.2z"/>
	<path class="st2" d="M14.8,55.7c0-1.6,0-3.1,0-4.7c0-0.4,0-0.9-0.1-1.3c-0.1-0.3,0-0.6,0-0.9c0-3,0-6,0-8.9c0-0.4,0-0.8-0.1-1.2
		c-0.1-0.2,0-0.5,0-0.7c0-0.7,0-1.3,0-2c0-0.1,0-0.3,0-0.4c0-0.2-0.2-0.2-0.3-0.2c-0.2,0-0.3,0.1-0.3,0.2c0,0.2,0,0.5,0,0.7
		c0,1.5,0,3.1,0,4.6c0,0.4,0,0.9-0.1,1.3c-0.1,0.2,0,0.5,0,0.8c0,1.9,0,3.9,0,5.8c0,0.4,0,0.7-0.1,1.1c-0.1,0.2,0,0.5,0,0.8
		c0,1.4,0,2.9,0,4.3c0,0.3,0,0.6,0,0.9c-2.3-2.6-4-5.5-5.3-8.7c-1-2.6-1.6-5.2-1.9-8c-0.2-2.2-0.3-4.4-0.1-6.6
		c0.3-4,1.3-7.9,2.8-11.6c1.3-3.2,2.8-6.2,4.6-9.1c0.1-0.2,0.3-0.5,0.5-0.7c0.2,0.1,0.3,0.4,0.5,0.6c2.2,3.5,4,7.1,5.4,11
		c0.9,2.7,1.6,5.5,2,8.4c0.3,2.3,0.3,4.6,0.2,6.9c-0.5,6.5-2.8,12.4-7,17.4C14.9,55.6,14.9,55.7,14.8,55.7z"/>
	<path class="st2" d="M179.4,68.6c-0.2-0.2-0.1-0.5-0.1-0.8c0-2.2,0-4.4,0-6.5c0-1.3,0-2.6,0-3.9c0-0.5,0-1-0.1-1.5
		c-0.1-0.2,0-0.5,0-0.8c0-2.3,0-4.7,0-7c0-0.6-0.2-1.2-0.2-1.9c0-0.1-0.1-0.2-0.2-0.2c-0.1,0-0.2,0.1-0.2,0.2
		c-0.1,0.7-0.2,1.4-0.2,2c0,1.2,0,2.4,0,3.6c0,0.7,0.1,1.4-0.1,2.1c-0.1,0.2,0,0.4,0,0.6c0,1.2,0,2.5,0,3.7c0,0.6,0,1.3-0.1,1.9
		c-0.1,0.2,0,0.5,0,0.7c0,2.3,0,4.6,0,7c0,0.3,0.1,0.6-0.1,0.8c0-0.8,0-1.5,0-2.3c0-0.6-0.1-1-0.5-1.5c-3.1-3.8-5.1-8.2-6-13.1
		c-0.4-2.5-0.6-4.9-0.4-7.4c0.2-3.1,0.8-6.2,1.7-9.2c1.2-3.7,2.8-7.1,4.8-10.4c0.3-0.5,0.7-1.1,1-1.6c0,0,0.1-0.1,0.1-0.1
		c0.2,0,0.3,0.2,0.3,0.4c3,4.7,5.2,9.7,6.5,15.1c0.8,3.5,1.1,7.1,0.8,10.7c-0.5,5.8-2.5,11-6.1,15.5c-0.4,0.5-0.6,1-0.6,1.7
		C179.5,67,179.5,67.8,179.4,68.6z"/>
	<path class="st3" d="M86.9,16.3c0.5,0.2,0.6,0.7,0.9,1.1c0.9,1.1,1.8,2.3,2.6,3.5c1.2,1.6,2.3,3.2,3.6,4.7c1.2,1.4,2.2,3,3.4,4.4
		c1.1,1.4,2.1,2.8,3.1,4.1c0.8,1.1,1.6,2.1,2.4,3.2c0.5,0.6,0.9,1.2,1.4,1.8c0.3,0.3,0.4,0.7,0.6,1c-0.1,0.1-0.2,0.2-0.3,0.3
		c-3.3,3.7-6.6,7.4-9.9,11.1c-0.1,0.1-0.3,0.3-0.4,0.4c-0.1,0.1-0.3,0.2-0.5,0.2c-1.1,0-2.2,0-3.3,0c-0.4,0-0.6-0.2-0.7-0.6
		c-0.1-0.9-0.2-1.7-0.4-2.6c-0.1-0.5-0.2-1-0.3-1.5c-0.1-0.5-0.2-1-0.2-1.5c-0.1-0.6-0.2-1.2-0.3-1.8c-0.1-0.8-0.3-1.7-0.4-2.5
		c-0.2-1-0.3-2-0.5-2.9c-0.1-0.6-0.2-1.2-0.2-1.8c-0.1-0.8-0.2-1.5-0.4-2.3c-0.1-0.6-0.2-1.2-0.3-1.8c-0.2-1-0.3-2-0.5-3
		c-0.2-0.9-0.3-1.7-0.4-2.6c-0.1-0.4-0.2-0.8-0.2-1.3c-0.1-1.1-0.4-2.2-0.5-3.4c-0.1-0.8-0.3-1.7-0.5-2.5c-0.1-0.5,0-1-0.2-1.4
		c0,0,0,0,0,0c0.1,0,0.1-0.1,0.2-0.2c0.3-0.4,0.6-0.7,0.9-1c0-0.1,0.1-0.1,0.1-0.1l0,0c0-0.1,0.1-0.1,0.1-0.2l0,0
		c0-0.1,0.1-0.1,0.1-0.2l0,0c0.1-0.1,0.1-0.1,0.2-0.2l0,0c0.1,0,0.1-0.1,0.2-0.2l0,0C86.8,16.5,86.9,16.4,86.9,16.3L86.9,16.3z"/>
	<path class="st4" d="M98.2,52c0.4-0.6,0.9-1.1,1.3-1.6c0.7-0.7,1.3-1.5,2-2.3c0.1-0.1,0.1-0.1,0.2-0.2c0.8-0.7,1.5-1.6,2.3-2.5
		c0.6-0.7,1.4-1.4,1.9-2.2c0,0,0.1-0.1,0.1-0.1c0.8-0.7,1.5-1.6,2.2-2.4c0.6-0.8,1.4-1.4,2-2.3c0,0,0.1-0.1,0.1-0.1
		c0.8-0.7,1.5-1.6,2.2-2.4c0.7-0.7,1.3-1.5,2-2.3c0.1-0.1,0.1-0.1,0.2-0.2c0.8-0.7,1.5-1.6,2.2-2.5c0.6-0.7,1.4-1.4,1.9-2.2
		c0,0,0.1-0.1,0.1-0.1c0.8-0.7,1.5-1.6,2.2-2.4c0.7-0.8,1.4-1.4,2-2.3c0,0,0.1-0.1,0.1-0.1c0.8-0.7,1.5-1.6,2.2-2.4
		c0.7-0.7,1.3-1.5,2-2.3c0.2-0.2,0.3-0.3,0.5-0.5c0.3-0.3,0.6-0.7,0.9-1.1c0.2-0.3,0.4-0.5,0.6-0.8c0.7-0.8,1.5-1.7,2.2-2.5
		c0,0,0.1-0.1,0.1-0.1c0.8-0.8,1.6-1.6,2.3-2.5c0.6-0.8,1.4-1.4,1.9-2.2c0.1-0.1,0.2-0.3,0.4-0.4c0.4-0.4,0.8-0.8,1.1-1.2
		c0.2-0.2,0.3-0.5,0.7-0.6c0.5,0.5,1.1,1,1.5,1.6c0.2,0.3,0.4,0.5,0.6,0.7c0.8,0.9,1.7,1.8,2.5,2.8c0,0,0.1,0.1,0.1,0.1
		c0.7,0.8,1.5,1.5,2.1,2.3c0.6,0.8,1.5,1.5,2.1,2.4c0.1,0.2,0.4,0.4,0.5,0.6c0.5,0.6,1,1.1,1.5,1.7c0,0.1,0.1,0.2,0.1,0.2
		c0,0.1-0.2,0.1-0.3,0.1c-0.3,0-0.6,0-0.9,0c-0.7,0-1.4,0-2.2,0c-0.3,0-0.6-0.1-0.8-0.3c-0.7-0.8-1.4-1.5-2-2.3
		c-0.1-0.1-0.1-0.1-0.2-0.2c-0.7-0.8-1.4-1.5-2.1-2.3c-0.7-0.7-1.3-1.5-2-2.3c-0.1-0.1-0.2-0.2-0.3-0.3c-0.1-0.1-0.3-0.1-0.4,0
		c-0.6,0.9-1.5,1.5-2.1,2.4c0,0-0.1,0.1-0.1,0.1c-1,0.9-1.7,1.9-2.6,2.8c-0.9,0.9-1.7,1.9-2.6,2.8c-0.9,1-1.8,2-2.7,3
		c-0.6,0.8-1.5,1.4-2,2.3c0,0,0,0-0.1,0.1c-0.7,0.8-1.4,1.5-2.1,2.3c-0.7,0.8-1.5,1.5-2.1,2.4c0,0-0.1,0.1-0.1,0.1
		c-0.7,0.8-1.5,1.5-2.1,2.3c-0.6,0.8-1.5,1.5-2.1,2.4c0,0-0.1,0.1-0.1,0.1c-0.7,0.8-1.5,1.5-2.1,2.3c-0.6,0.8-1.5,1.4-2,2.3
		c0,0-0.1,0.1-0.1,0.1c-0.7,0.8-1.5,1.5-2.1,2.3c-0.6,0.8-1.5,1.5-2.1,2.4c-0.6,0.8-1.4,1.5-2,2.2c-0.7,0.9-1.5,1.6-2.2,2.5
		c-0.6,0.7-1.2,1.3-1.8,2c-0.2,0.3-0.5,0.3-0.8,0.3c-0.9-0.1-1.8,0-2.8,0C98.7,52.1,98.5,52.2,98.2,52z"/>
	<path class="st4" d="M22.1,48.9c-0.1-0.2,0.1-0.5,0.1-0.6c0.7-1.6,1.1-3.3,1.5-4.9c0-0.2,0.1-0.3,0.1-0.5c0-0.4,0.2-0.6,0.5-0.9
		c0.7-0.8,1.4-1.6,2.1-2.5c0,0,0.1-0.1,0.1-0.1c0.7-0.8,1.5-1.5,2.1-2.3c0.6-0.8,1.5-1.5,2.1-2.4c0.6-0.8,1.3-1.5,2-2.2
		c0.7-0.8,1.3-1.6,2-2.3c0,0,0.1-0.1,0.1-0.1c0.8-0.7,1.5-1.6,2.2-2.4c0.7-0.7,1.3-1.5,2-2.3c0.3-0.4,0.7-0.7,1.1-1.1
		c0.2-0.2,0.3-0.1,0.5,0c0.1,0.1,0.3,0.3,0.4,0.4c0.9,1.1,1.8,2.1,2.7,3.1c0.6,0.7,1.4,1.4,1.9,2.2c0,0,0.1,0.1,0.1,0.1
		c0.8,0.8,1.6,1.6,2.3,2.5c0.6,0.8,1.4,1.4,1.9,2.2c0,0,0.1,0.1,0.1,0.1c0.7,0.8,1.5,1.5,2.1,2.3c0.7,0.8,1.5,1.5,2.1,2.4
		c0,0,0.1,0.1,0.1,0.1c0.7,0.8,1.5,1.5,2.1,2.3c0.6,0.8,1.5,1.5,2.1,2.4c0.6,0.8,1.4,1.5,2,2.2c0.7,0.9,1.6,1.6,2.2,2.5
		c0,0,0.1,0.1,0.1,0.1c0.7,0.8,1.4,1.5,2.1,2.3c0.6,0.8,1.3,1.4,2,2.1c0.1,0.1,0.2,0.2,0.1,0.3c0,0.1-0.1,0.1-0.2,0.1
		c-0.7,0-1.4,0.2-2.1,0.3c-0.3,0.1-0.7,0-1,0c-0.1,0-0.3-0.1-0.4-0.2c-0.1-0.1-0.1-0.1-0.2-0.2c-0.7-0.8-1.4-1.5-2-2.3
		c-0.1-0.1-0.1-0.1-0.2-0.2c-0.7-0.8-1.4-1.5-2.1-2.3c-0.7-0.8-1.4-1.6-2.1-2.4c0,0-0.1-0.1-0.1-0.1c-0.7-0.8-1.5-1.6-2.2-2.4
		c-0.6-0.8-1.4-1.4-2-2.3c0,0-0.1-0.1-0.1-0.1c-0.7-0.8-1.5-1.6-2.2-2.4c-0.7-0.7-1.3-1.5-2-2.3c-0.1-0.1-0.1-0.1-0.2-0.2
		c-0.7-0.8-1.5-1.5-2.1-2.3c-0.6-0.8-1.5-1.5-2.1-2.4c0,0-0.1-0.1-0.1-0.1c-0.7-0.8-1.4-1.6-2.2-2.3c-0.3-0.3-0.5-0.8-0.9-1
		c-0.3-0.2-0.3-0.2-0.6,0c-0.5,0.5-1,0.9-1.3,1.5c0,0.1-0.1,0.1-0.2,0.2c-0.7,0.8-1.4,1.5-2.1,2.3c-0.6,0.8-1.4,1.4-1.9,2.2
		c0,0.1-0.1,0.1-0.2,0.2c-0.8,0.7-1.5,1.6-2.2,2.5c-0.7,0.8-1.5,1.5-2.1,2.4c0,0-0.1,0.1-0.1,0.1c-0.7,0.8-1.4,1.5-2.1,2.3
		c-0.6,0.8-1.4,1.4-1.9,2.2c0,0-0.1,0.1-0.1,0.1c-0.8,0.8-1.5,1.6-2.3,2.5c-0.4,0.4-0.7,1-1.2,1.4C22.4,48.7,22.3,48.9,22.1,48.9z"
		/>
	<path class="st4" d="M154,25.5c0.4,0.4,0.8,0.7,1.1,1.2c0.3,0.4,0.6,0.7,0.9,1c0.8,0.9,1.5,1.7,2.3,2.6c0,0,0.1,0.1,0.1,0.1
		c0.7,0.8,1.5,1.6,2.2,2.4c0.6,0.8,1.4,1.4,2,2.3c0,0,0.1,0.1,0.1,0.1c0.7,0.8,1.5,1.6,2.2,2.4c0.7,0.8,1.4,1.5,2,2.3
		c0.3,0.4,0.7,0.8,1.1,1.1c0.2,0.2,0.4,0.5,0.3,0.8c0,0.5,0,1-0.1,1.4c-0.1,0.3,0,0.6-0.1,0.9c0,0.5,0,0.9,0,1.4c0,0,0,0-0.1,0.1
		c-0.1,0-0.1,0-0.2-0.1c-0.3-0.3-0.7-0.6-1-1c-0.3-0.4-0.6-0.7-1-1.1c-0.7-0.8-1.5-1.7-2.2-2.5c0,0-0.1-0.1-0.1-0.1
		c-0.8-0.7-1.4-1.5-2.1-2.3c-0.6-0.7-1.4-1.4-1.9-2.2c0-0.1-0.1-0.1-0.2-0.2c-0.8-0.7-1.5-1.6-2.2-2.5c-0.6-0.7-1.4-1.4-1.9-2.2
		c0,0-0.1-0.1-0.1-0.1c-0.8-0.7-1.4-1.6-2.2-2.4c-0.3-0.3-0.6-0.7-0.9-1c-0.1-0.1-0.1-0.3,0-0.4c0.6-0.6,1.1-1.4,1.7-1.9
		C153.8,25.6,153.9,25.6,154,25.5z"/>
	<path class="st2" d="M156.7,53.8c0,0.8,0,1.5,0,2.3c0,0.4-0.1,0.4-0.4,0.4c-1.4,0-2.8,0-4.2,0c-0.3,0-0.3-0.1-0.3-0.4
		c0-1.6,0-3.1,0-4.7c0-0.3,0.1-0.4,0.4-0.4c1.4,0,2.7,0,4.1,0c0.3,0,0.4,0.1,0.4,0.4C156.7,52.3,156.7,53.1,156.7,53.8z"/>
	<path class="st2" d="M145.3,53.8c0-0.8,0-1.5,0-2.3c0-0.3,0.1-0.4,0.4-0.4c1.4,0,2.8,0,4.2,0c0.3,0,0.3,0.1,0.3,0.4
		c0,1.6,0,3.1,0,4.7c0,0.3-0.1,0.4-0.4,0.4c-1.4,0-2.7,0-4.1,0c-0.3,0-0.4-0.1-0.4-0.4C145.3,55.4,145.3,54.6,145.3,53.8
		C145.3,53.8,145.3,53.8,145.3,53.8z"/>
	<path class="st5" d="M151.8,46.4c0-0.7,0-1.5,0-2.2c0-0.3,0.1-0.4,0.4-0.4c1.4,0,2.7,0,4.1,0c0.3,0,0.4,0.1,0.4,0.4
		c0,1.5,0,3.1,0,4.6c0,0.3-0.1,0.4-0.4,0.4c-1.3,0-2.7,0-4,0c-0.4,0-0.5-0.1-0.5-0.5C151.8,48,151.8,47.2,151.8,46.4
		C151.8,46.4,151.8,46.4,151.8,46.4z"/>
	<path class="st2" d="M150.2,46.5c0,0.7,0,1.4,0,2.1c0,0.5-0.1,0.6-0.6,0.6c-0.8,0-1.7,0-2.5,0c-0.5,0-1,0-1.5,0
		c-0.3,0-0.4-0.1-0.4-0.4c0-1.5,0-3.1,0-4.6c0-0.3,0.1-0.4,0.4-0.4c1.4,0,2.7,0,4.1,0c0.3,0,0.4,0.1,0.4,0.4
		C150.2,45,150.2,45.8,150.2,46.5C150.2,46.5,150.2,46.5,150.2,46.5z"/>
	<path class="st2" d="M39.8,47.5c0,0.7,0,1.5,0,2.2c0,0.3-0.1,0.3-0.4,0.4c-1.3,0-2.6,0-3.9,0c-0.4,0-0.4-0.1-0.4-0.4
		c0-1.5,0-3,0-4.5c0-0.3,0.1-0.4,0.4-0.4c1.3,0,2.6,0,3.9,0c0.3,0,0.4,0.1,0.4,0.4C39.8,46,39.8,46.7,39.8,47.5
		C39.8,47.5,39.8,47.5,39.8,47.5z"/>
	<path class="st6" d="M46,47.4c0,0.7,0,1.4,0,2.1c0,0.4,0,0.5-0.4,0.5c-1.3,0-2.5,0-3.8,0c-0.4,0-0.5-0.1-0.5-0.4c0-1,0-2,0-3
		c0-0.4,0-0.8,0-1.2c0-0.6,0-0.6,0.7-0.6c0.8,0,1.6,0,2.4,0c0.4,0,0.8,0,1.2,0c0.3,0,0.4,0.1,0.4,0.4C46,45.9,46,46.7,46,47.4z"/>
	<path class="st2" d="M39.8,54.4c0,0.7,0,1.5,0,2.2c0,0.3-0.1,0.4-0.4,0.4c-1.3,0-2.6,0-3.9,0c-0.3,0-0.4-0.1-0.4-0.4
		c0-1.5,0-3,0-4.5c0-0.3,0.1-0.3,0.4-0.3c1.3,0,2.6,0,3.9,0c0.3,0,0.3,0.1,0.3,0.4C39.8,52.9,39.8,53.6,39.8,54.4
		C39.8,54.4,39.8,54.4,39.8,54.4z"/>
	<path class="st7" d="M46,54.4c0,0.7,0,1.4,0,2.1c0,0.3-0.1,0.4-0.4,0.4c-1.3,0-2.5,0-3.8,0c-0.4,0-0.5-0.1-0.5-0.5
		c0-0.7,0-1.4,0-2.1c0-0.7,0-1.4,0-2.1c0-0.4,0-0.5,0.5-0.5c1.2,0,2.4,0,3.6,0c0.5,0,0.6,0,0.6,0.6C46,53.1,46,53.7,46,54.4
		C46,54.4,46,54.4,46,54.4z"/>
	<path class="st1" d="M86.2,17.1c0,0.1-0.1,0.1-0.1,0.2C86.1,17.1,86.1,17.1,86.2,17.1z"/>
	<path class="st1" d="M86.4,16.9c0,0.1-0.1,0.1-0.1,0.2C86.2,16.9,86.3,16.9,86.4,16.9z"/>
	<path class="st1" d="M86.9,16.3c0,0.1-0.1,0.2-0.2,0.2C86.7,16.4,86.8,16.3,86.9,16.3z"/>
	<path class="st1" d="M86.7,16.5c0,0.1-0.1,0.2-0.2,0.2C86.6,16.6,86.6,16.5,86.7,16.5z"/>
	<path class="st1" d="M86.5,16.7c0,0.1-0.1,0.1-0.2,0.2C86.4,16.8,86.4,16.7,86.5,16.7z"/>
	<path class="st1" d="M85,18.4c0,0.1-0.1,0.1-0.2,0.2C84.8,18.5,84.9,18.4,85,18.4z"/>
	<path class="st1" d="M86,17.2c0,0-0.1,0.1-0.1,0.1C85.9,17.3,86,17.2,86,17.2z"/>
	<path class="st2" d="M109,84c-0.1,0.3-0.3,0.3-0.5,0.4c-0.9,0.3-1.8,0.6-2.7,0.9c-1.8,0.7-3.6,1.4-5.4,2.2
		c-1.9,0.8-3.8,1.7-5.7,2.6c-0.3,0.1-0.5,0.1-0.7,0c-0.8-0.3-1.6-0.7-2.5-1c-1.8-0.7-3.7-1.4-5.5-2.1c-3.4-1.3-6.9-2.4-10.3-3.5
		c-1.5-0.5-3-0.8-4.4-1.3c-1.8-0.6-3.7-1-5.5-1.6c-1.3-0.4-2.6-0.7-4-1.1c-2-0.5-4-1-6-1.5c-2.4-0.6-4.9-1.1-7.3-1.7
		c-1.4-0.3-2.8-0.6-4.3-0.9c-1.3-0.3-2.5-0.5-3.8-0.8c-1-0.2-2-0.4-3-0.6c-1.1-0.2-2.3-0.4-3.4-0.6c-0.7-0.1-1.5-0.3-2.2-0.4
		c-0.9-0.2-1.7-0.3-2.6-0.5c-0.9-0.2-1.8-0.3-2.7-0.5c-0.3,0-0.5-0.1-0.8-0.1c0,0-0.1-0.1-0.1-0.1c0,0,0-0.1,0.1-0.1
		c0,0,0.1,0,0.1,0c1.6-0.7,3.2-1.3,4.8-2c0.7-0.3,1.5-0.5,2.2-0.9c0.8-0.3,1.6-0.3,2.4-0.2c0.2,0,0.3,0.1,0.5,0.1
		c0.8-0.1,1.6,0.1,2.4,0.2c0.7,0.1,1.5,0,2.2,0.3c0.1,0,0.2,0,0.3,0c1,0,2,0.2,3,0.3c0.7,0.1,1.4,0.2,2,0.2c0.6,0.1,1.3,0.1,1.9,0.3
		c0.5,0.1,1,0.1,1.5,0.2c1,0.1,2.1,0.3,3.1,0.4c1.3,0.1,2.6,0.5,4,0.6c0.9,0.1,1.8,0.3,2.7,0.4c1.3,0.2,2.5,0.4,3.8,0.6
		c1.2,0.2,2.3,0.4,3.5,0.6c1,0.2,2,0.4,3,0.6c1.1,0.2,2.1,0.4,3.2,0.6c1.4,0.3,2.9,0.6,4.3,0.9c1.7,0.3,3.4,0.7,5,1.1
		c1.9,0.4,3.9,0.9,5.8,1.4c1.5,0.4,2.9,0.7,4.4,1.1c1.2,0.3,2.4,0.7,3.6,1c2.4,0.7,4.8,1.4,7.1,2.2c2,0.6,4,1.4,6,2
		C108.7,83.8,108.9,83.9,109,84z"/>
	<path class="st2" d="M17.8,75.6c0-0.2,0.1-0.2,0.2-0.3c0.4-0.2,0.9-0.4,1.3-0.7c0.4-0.2,0.8-0.2,1.3-0.2c1.3,0.2,2.5,0.5,3.8,0.6
		c1.4,0.2,2.8,0.4,4.2,0.7c1.6,0.3,3.2,0.6,4.8,0.8c2.6,0.4,5.1,1,7.6,1.4c2,0.4,4,0.9,6,1.3c1.9,0.4,3.8,0.8,5.8,1.3
		c3.3,0.8,6.5,1.6,9.8,2.4c2.5,0.7,4.9,1.4,7.4,2.1c4.1,1.2,8.2,2.5,12.2,3.9c1.9,0.6,3.8,1.4,5.6,2.1c0.6,0.2,1.2,0.5,1.8,0.7
		c0.1,0.1,0.3,0.1,0.4,0.2c0.1,0.1,0.1,0.3,0,0.3c-0.4,0.2-0.7,0.4-1.1,0.6c-1.9,1-3.7,2.1-5.5,3.3c-1.6,1-3.2,2.1-4.8,3.2
		c-0.7,0.5-1.3,1-2,1.5c-0.1,0.1-0.3,0.2-0.4,0.3c-0.2,0.1-0.3,0.1-0.5,0c-1.8-1-3.5-2-5.3-3c0,0-0.1,0-0.2-0.1
		c-3.4-1.8-6.9-3.6-10.3-5.2c-1.2-0.6-2.4-1.2-3.6-1.7c-1.6-0.8-3.3-1.5-4.9-2.2c-1.3-0.6-2.6-1.2-3.9-1.8c-1.4-0.6-2.8-1.2-4.2-1.8
		c-2.1-0.9-4.1-1.7-6.2-2.6c-2.5-1-5-2-7.5-2.9c-2-0.7-4.1-1.5-6.1-2.3c-1-0.4-2.1-0.7-3.2-1.1C19.5,76.2,18.7,75.9,17.8,75.6z"/>
	<path class="st2" d="M10,79.9c0.5-0.5,1-0.7,1.5-1c0.6-0.3,1.1-0.7,1.7-1c0.4-0.2,0.7-0.3,1.1-0.1c1.6,0.6,3.2,1.1,4.8,1.7
		c0.9,0.3,1.9,0.7,2.8,1c1.9,0.7,3.8,1.4,5.6,2.1c2,0.8,4.1,1.5,6.1,2.3c2.1,0.8,4.2,1.7,6.4,2.6c1,0.4,2.1,0.9,3.1,1.3
		c1.2,0.5,2.3,1,3.5,1.5c1.3,0.6,2.7,1.2,4,1.8c0.7,0.3,1.4,0.6,2,0.9c1.1,0.5,2.2,1,3.3,1.6c3.4,1.6,6.8,3.3,10.2,5
		c2.2,1.2,4.4,2.4,6.7,3.6c0.1,0.1,0.2,0.1,0.3,0.2c0.1,0.1,0.1,0.2,0,0.2c-0.2,0.2-0.5,0.4-0.7,0.6c-1.1,0.9-2.3,1.8-3.4,2.7
		c-0.7,0.6-1.4,1.3-2.1,1.9c-1,0.9-1.9,1.9-3,2.8c-0.9,0.8-1.7,1.6-2.5,2.4c-0.2,0.2-0.3,0.2-0.5,0c-0.2-0.3-0.5-0.5-0.7-0.8
		c-2.2-2.5-4.6-4.8-7-7.1c-0.8-0.8-1.8-1.5-2.6-2.3c-0.6-0.5-1.1-1-1.7-1.5c-0.8-0.6-1.6-1.3-2.4-2c-1.4-1.1-2.8-2.2-4.2-3.2
		c-0.5-0.4-1.1-0.8-1.7-1.2c-2.1-1.5-4.2-2.9-6.4-4.2c-1.3-0.8-2.6-1.5-3.9-2.3c-1.7-1-3.5-1.9-5.3-2.9c-0.7-0.4-1.5-0.7-2.2-1.1
		c-1.9-1-3.9-1.9-5.9-2.7c-1.8-0.8-3.7-1.6-5.6-2.2C10.9,80.3,10.5,80.1,10,79.9z"/>
	<path class="st2" d="M175.4,77.3c-0.5,0.2-0.9-0.1-1.2-0.1c-0.4,0-0.7,0-1.1-0.1c-0.1,0-0.2-0.1-0.3-0.1c-0.9,0.1-1.9-0.2-2.8-0.2
		c-0.4,0-0.8,0-1.2-0.1c-0.4-0.1-0.8,0-1.2-0.1c-0.6,0-1.3,0-1.9-0.1c-0.2-0.1-0.5,0-0.7,0c-0.7,0-1.4,0-2.1,0c-0.5,0-1,0-1.4-0.1
		c-0.2-0.1-0.5,0-0.7,0c-2.4,0-4.8,0-7.1,0c-0.3,0-0.7,0-1,0.1c-0.2,0.1-0.5,0.1-0.7,0.1c-0.7,0-1.3,0-2,0c-0.6,0-1.2,0-1.8,0.1
		c-0.2,0.1-0.4,0-0.6,0c-0.7,0-1.5-0.1-2.2,0.2c-0.2,0.1-0.5,0-0.8,0c-0.4,0-0.7,0-1.1,0.1c-0.1,0-0.1,0-0.2,0
		c-0.9-0.1-1.8,0.2-2.6,0.2c-0.8,0-1.5,0.2-2.3,0.3c-0.6,0.1-1.2,0.2-1.8,0.2c-0.7,0.1-1.4,0.2-2.1,0.3c-0.8,0.1-1.6,0.2-2.4,0.4
		c-1.6,0.2-3.1,0.5-4.7,0.8c-2,0.4-3.9,0.8-5.8,1.3c-2,0.5-4,1.1-6,1.6c-0.1,0-0.2,0.1-0.2,0.1c-1,0.3-1,0.3-2.1-0.1
		c-1.3-0.5-2.6-1-3.9-1.4c-2-0.7-4-1.4-6.1-2.1c-2.8-0.9-5.7-1.8-8.5-2.5c-0.2,0-0.4-0.1-0.6-0.2c0,0,0-0.1-0.1-0.1c0,0,0-0.1,0-0.1
		c0.1,0,0.2-0.1,0.2-0.1c0.4,0,0.8-0.1,1.2-0.2c1.2-0.1,2.3-0.4,3.5-0.5c0.6-0.1,1.2-0.2,1.9-0.2c0.4,0,0.9-0.1,1.3-0.2
		c0.6-0.1,1.3-0.1,1.9-0.3c0.6-0.1,1.3-0.1,2-0.2c0.8-0.1,1.5-0.2,2.3-0.3c0.5-0.1,1,0,1.5-0.2c0.7,0.1,1.5-0.2,2.2-0.2
		c0.8,0,1.6-0.2,2.5-0.3c0.1,0,0.1,0,0.2,0c0.9,0.1,1.8-0.2,2.6-0.2c0.2,0,0.5-0.1,0.7-0.1c0.2,0,0.5-0.1,0.7-0.1c0.5,0,1,0,1.4-0.1
		c0.2-0.1,0.5,0,0.7,0c0.4,0,0.7,0,1.1-0.1c0.2-0.1,0.4,0,0.6,0c0.6,0,1.2,0,1.8-0.2c0.2,0,0.3,0,0.5,0c0.6,0,1.1,0,1.7-0.1
		c0.3-0.1,0.6,0,0.9,0c0.6,0,1.1,0,1.7-0.1c0.2-0.1,0.5,0,0.7,0c0.7,0,1.4,0,2.1-0.1c0.7-0.1,1.4,0,2.1,0c0.4,0,0.7,0,1.1-0.1
		c0.2-0.1,0.5,0,0.7,0c0.8,0,1.5,0,2.3,0c0.5,0,0.9,0,1.4-0.1c0.2-0.1,0.5,0,0.7,0c5.7,0,11.5,0,17.2,0c0.3,0,0.6,0,0.9,0.1
		c0.2,0.1,0.5,0.1,0.7,0.1c0.7,0,1.3,0,2,0c0.4,0,0.8,0,1.2,0.1c0.4,0.1,0.8,0.1,1.2,0.1c0.4,0,0.7,0.1,1,0.2
		c1.5,0.7,2.9,1.4,4.4,2.1c1.3,0.6,2.6,1.4,4,2C173.6,76.3,174.4,76.8,175.4,77.3z"/>
	<path class="st2" d="M68.6,69.9c1-0.2,1.9-0.4,2.9-0.6c1.4-0.3,2.7-0.5,4.1-0.8c0.8-0.1,1.6-0.3,2.4-0.4c0.8-0.1,1.7-0.3,2.5-0.4
		c0.8-0.1,1.7-0.3,2.5-0.4c1-0.2,2-0.3,3-0.5c0.5-0.1,0.9-0.1,1.4-0.2c0.5-0.1,1.1-0.2,1.6-0.2c1-0.1,2-0.3,3-0.5
		c0.6-0.1,1.2-0.2,1.9-0.2c0.4,0,0.8-0.1,1.3-0.2c1.1-0.2,2.3-0.2,3.4-0.4c0.7-0.1,1.4-0.1,2.1-0.2c0.8-0.1,1.5-0.2,2.3-0.3
		c0.1,0,0.2,0,0.3,0c0.8,0.1,1.5-0.3,2.3-0.2c0.8-0.3,1.6,0,2.4-0.3c0.2-0.1,0.5,0,0.7,0c0.3,0,0.6,0,0.8-0.1c0.1,0,0.2-0.1,0.3-0.1
		c0.9,0.1,1.8-0.2,2.7-0.2c0.3,0,0.5,0,0.8-0.1c0.1,0,0.2-0.1,0.3-0.1c1.1,0.1,2.2-0.2,3.3-0.2c0.3,0,0.6,0,0.9-0.1
		c0.1,0,0.2-0.1,0.3-0.1c1.3,0.1,2.7-0.2,4-0.2c0.5,0,1,0,1.4-0.1c0.3-0.1,0.6,0,0.9,0c0.9,0,1.8,0.1,2.7-0.2c0.2,0,0.4,0,0.6,0
		c1,0,2,0,2.9,0c0.6,0,1.1,0.1,1.7-0.1c1.4,0,2.7-0.1,4.1,0.2c1.8,0.5,3.6,0.9,5.4,1.3c1.1,0.3,2.3,0.6,3.4,0.9
		c2.9,0.8,5.8,1.7,8.6,2.7c0.2,0.1,0.3,0.1,0.5,0.2c0,0.2-0.2,0.1-0.2,0.1c-0.6,0-1.3,0.1-1.9-0.1c-0.2-0.1-0.5,0-0.7,0
		c-1.3,0-2.6,0-3.9,0c-0.5,0-1.1,0-1.6,0.1c-0.2,0.1-0.5,0-0.7,0c-1.6,0-3.2,0-4.8,0c-0.7,0-1.4,0-2.1,0.1c-0.4,0.1-0.9,0-1.3,0
		c-1,0-1.9,0-2.9,0.1c-0.6,0.1-1.1,0-1.7,0c-0.5,0-0.9,0-1.4,0.1c-0.2,0.1-0.3,0-0.5,0c-0.7,0-1.5,0-2.2,0.2c-0.3,0.1-0.6,0-0.9,0
		c-0.5,0-1.1,0-1.6,0.1c-0.2,0.1-0.5,0-0.7,0c-0.5,0-1,0-1.5,0.1c-0.2,0.1-0.3,0-0.5,0c-0.6,0-1.2,0-1.8,0.1c-0.2,0-0.3,0-0.5,0
		c-0.4,0-0.9,0-1.3,0.1c-0.1,0-0.1,0-0.2,0c-0.9-0.1-1.8,0.2-2.7,0.2c-0.9,0-1.7,0.2-2.5,0.3c-0.1,0-0.2,0-0.3,0
		c-0.8-0.1-1.6,0.2-2.4,0.2c-0.7,0.1-1.5,0.1-2.2,0.3c-0.5,0.1-1,0.1-1.5,0.2c-0.7,0.1-1.4,0.2-2.1,0.2c-0.6,0-1.3,0.1-1.9,0.3
		c-0.4,0.1-0.9,0.1-1.4,0.2c-0.6,0.1-1.2,0.2-1.9,0.2c-0.5,0-0.9,0.1-1.4,0.2c-1,0.1-2,0.4-3,0.4c-1,0.1-1.9,0.3-2.9,0.4
		c-1.3,0.1-2.5,0.4-3.8,0.6c-1,0.2-2,0.3-3,0.5c-0.3,0.1-0.7,0.1-1,0c-1.6-0.4-3.1-0.8-4.7-1.1c-1.8-0.4-3.6-0.7-5.4-1.1
		c-1.8-0.4-3.7-0.8-5.5-1.1c-0.2,0-0.5-0.1-0.7-0.1C68.8,70.1,68.7,70.1,68.6,69.9z"/>
	<path class="st2" d="M41.7,65.9c1.6-0.4,3.1-0.8,4.7-1.3c1.4-0.4,2.8-0.7,4.1-1.1c2-0.5,4-1,6.1-1.3c1-0.2,1.9-0.4,2.9-0.6
		c0.9-0.2,1.7-0.3,2.6-0.5c0.8-0.1,1.7-0.3,2.5-0.5c0.4-0.1,0.9-0.1,1.4-0.2c1-0.1,2-0.3,3-0.4c0.6-0.1,1.3-0.1,1.9-0.3
		c0.6-0.1,1.2-0.1,1.8-0.2c0.9-0.1,1.8-0.1,2.7-0.3c0.2,0,0.3,0,0.5,0c0.4,0,0.8,0,1.2-0.1c0.1,0,0.2,0,0.3,0c0.6,0,1.1,0,1.7-0.2
		c1.1,0.1,2.2-0.2,3.3-0.2c0.5,0,1,0,1.4-0.1c0.3-0.1,0.6,0,0.9,0c0.9,0,1.8,0.1,2.7-0.2c0.2,0,0.4,0,0.6,0c1.7,0,3.4,0,5.2,0
		c0.4,0,0.9,0,1.3-0.1c0.7-0.1,1.4-0.1,2.1,0c0.3,0.1,0.7,0.1,1,0.1c1.8,0,3.6,0,5.3,0c0.4,0,0.7,0,1.1,0.1c0.3,0.1,0.6,0,0.9,0.1
		c0.9,0,1.9-0.1,2.8,0.2c0.3,0.1,0.7,0,1,0c0.5,0,0.9,0,1.4,0.1c0.1,0,0.1,0,0.2,0c1-0.1,2,0.2,3,0.2c0.3,0,0.6,0,0.8,0.1
		c0.1,0,0.2,0.1,0.3,0.1c0.8-0.1,1.6,0.2,2.4,0.2c0.6,0,1.1,0.2,1.7,0.3c-0.6,0.1-1.2,0.2-1.8,0.2c-0.7,0-1.4,0-2,0.2
		c-1-0.1-2.1,0.1-3.1,0.2c-0.9,0.1-1.8,0.1-2.7,0.3c-0.1,0-0.1,0-0.2,0c-0.8-0.1-1.6,0.2-2.5,0.2c-0.8,0-1.5,0.2-2.3,0.3
		c-0.1,0-0.2,0.1-0.3,0c-0.8-0.1-1.5,0.1-2.3,0.2c-0.6,0.1-1.3,0.1-1.9,0.3c-0.1,0-0.2,0-0.3,0c-1.3,0.1-2.6,0.3-3.9,0.5
		c-0.5,0.1-1,0.1-1.5,0.2c-1,0.2-2,0.2-3.1,0.4c-1.3,0.2-2.6,0.5-4,0.6c-0.8,0.1-1.7,0.2-2.5,0.4c-1,0.2-2,0.3-3,0.5
		c-0.8,0.1-1.7,0.3-2.5,0.4c-0.8,0.1-1.5,0.3-2.3,0.4c-0.9,0.2-1.7,0.3-2.6,0.5c-1,0.2-1.9,0.4-2.9,0.6c-1.1,0.2-2.1,0.4-3.2,0.6
		c-1.5,0.3-3,0.6-4.4,0.9c-1.1,0.2-2.2,0.5-3.3,0.8c-0.4,0.1-0.8,0.1-1.2,0c-0.9-0.1-1.8-0.3-2.7-0.5c-0.6-0.1-1.1-0.1-1.7-0.2
		c-0.4,0-0.7-0.1-1.1-0.2c-0.6-0.1-1.2-0.2-1.9-0.3c-0.6-0.1-1.1-0.2-1.7-0.2c-1.1-0.1-2.1-0.3-3.2-0.4c-1.1-0.1-2.3-0.3-3.4-0.5
		c-0.3,0-0.5,0-0.8,0C42.2,66.2,42,66.1,41.7,65.9z"/>
</g>
<g>
	<text transform="matrix(1 0 0 1 61.3666 74.6601)" class="st8 st9">3DG</text>
	<g>
		<text transform="matrix(1 0 0 1 61.3666 74.6601)" class="st10 st8 st9">3DG</text>
	</g>
	<g>
		<text transform="matrix(1 0 0 1 61.3666 74.6601)" class="st11 st8 st9">3DG</text>
	</g>
</g>
<g>
	<text transform="matrix(1 0 0 1 2.9276 91.8749)" class="st12 st13 st14">REALTY DEVELOPMENT</text>
	<g>
		<text transform="matrix(1 0 0 1 2.9276 91.8749)" class="st15 st12 st13 st14">REALTY DEVELOPMENT</text>
	</g>
	<g>
		<text transform="matrix(1 0 0 1 2.9276 91.8749)" class="st16 st12 st13 st14">REALTY DEVELOPMENT</text>
	</g>
</g>
<g>
	<path class="st17" d="M92.4,46.6c0.6,0.8,1.1,1.6,1.5,2.5c0.1,0.3,0.3,0.5,0.4,0.8c0.1,0.2,0.2,0.4,0.5,0.3c0.1,0,0.2,0,0.3,0.1
		c0.1,0.1,0.2,0.2,0.2,0.4c0.3,0.7,0.8,0.9,1.5,0.8c0.7-0.1,1.3,0.1,2,0.2c0.3,0.1,0.6,0.1,0.8,0.3c0.6,0.3,0.8,0.9,0.6,1.5
		c-0.1,0.2-0.2,0.4-0.3,0.6c-1.2,1.2-2.4,2.5-3.8,3.5c-2,1.5-4.3,2-6.7,2.1c-1.6,0.1-3.2-0.2-4.8-0.1c-1.7,0.1-3.3,0.7-4.9,1
		c-0.7,0.2-1.3,0.3-2,0.2c-0.5-0.1-1-0.2-1.3-0.6c-0.2-0.2-0.4-0.5-0.2-0.9c0.2-0.4,0.5-0.1,0.8,0c0.4,0.1,1,0.4,1.2-0.1
		c0.2-0.6-0.6-0.4-0.9-0.6c-0.3-0.1-0.7-0.2-0.9-0.5c-0.5-1-0.6-2.1-0.7-3.3c0-0.5,0-1.1,0-1.6c0.2-0.3,0-0.6,0.1-0.9
		c0-0.1,0-0.1,0-0.1c0.3,0,0.3,0.2,0.4,0.4c0.7,1.4,2,1.9,3.4,2c3.7,0.3,6.9-0.9,9.8-3.1c0.7-0.6,1.4-1.3,1.8-2.1
		c0.5-0.8,0.8-1.6,0.6-2.6C91.9,46.8,91.8,46.2,92.4,46.6z"/>
	<path class="st18" d="M92.4,46.6c-0.4,0-0.4,0-0.3,0.2c0.3,0.8,0.1,1.5-0.2,2.2c-0.5,1.2-1.3,2.1-2.3,2.9c-0.8,0.6-1.7,1.2-2.6,1.7
		c-1.4,0.7-2.8,1.1-4.4,1.4c-0.2,0-0.3,0-0.5,0c-0.7,0-1.4,0-2.1,0c-1.2,0-2.2-0.4-3.1-1.1c-0.4-0.3-0.6-0.7-0.7-1.1
		c-0.1-0.2-0.1-0.4-0.2-0.5c-0.1-0.4,0.1-0.7,0.2-1c0.2-0.5,0.4-1.1,0.5-1.6c0-0.1,0.1-0.1,0.1-0.2c0.8-1.1,1.6-2.1,2.7-2.7
		c0.3-0.2,0.6-0.5,1-0.2c0,0.4-0.3,0.6-0.5,0.8c-0.7,0.9-0.4,1.5,0.6,1.8c0.5,0.1,0.9,0.1,1.4,0.1c1.9-0.3,3.6-1,4.9-2.5
		c0.8-0.2,1,0.6,1.5,0.9c-0.2-0.2-0.5-0.4-0.7-0.8c-0.1-0.1,0.2-0.2,0-0.2c-0.1,0-0.1-0.1-0.2-0.2c-0.2-0.7-0.3-1.3-1.2-1.5
		c-0.2,0-0.3-0.2-0.2-0.4c0.2-0.3,0.6-0.3,1-0.3c1.7-0.1,3.1,0.4,4.5,1.3C91.9,45.8,92.3,46.2,92.4,46.6z"/>
	<path class="st19" d="M87.7,46.8c0.1,0.3,0.4,0.4,0.6,0.7c0.2,0.2,0.4,0.5,0.6,0.7c-0.2,0.2-0.2,0-0.3,0c-0.5-0.5-1-1-1.6-1.3
		c-0.6,0.1-1.1-0.3-1.7-0.4c-1.4-0.3-2.8-0.3-4.1,0.1c-0.3,0.1-0.5,0.2-0.8,0.1c-0.2,0-0.4,0.1-0.6,0.2c-0.8,0.6-1.6,1.1-2.2,1.9
		c-0.2,0.3-0.5,0.5-0.7,0.9c0,0.1-0.1,0.1-0.2,0c0.4-1.1,1-1.9,1.9-2.5c1.3-1.1,2.9-1.8,4.6-2c1.6-0.4,3,0.2,4.2,1.3
		c0.1,0.1,0.2,0.3,0.4,0.4l0,0C87.7,46.7,87.7,46.7,87.7,46.8C87.7,46.8,87.7,46.8,87.7,46.8z"/>
	<path class="st20" d="M84.7,59.6c0.8,0,1.5-0.1,2.3,0.1c1.2,0,2.4,0.1,3.6-0.1c0.7-0.1,1.3-0.2,2-0.3c1.6-0.4,3-1.2,4.3-2.2
		c0.9-0.8,1.7-1.6,2.6-2.4c0.2-0.2,0.3-0.4,0.6-0.5c-0.2,0.4-0.5,0.7-0.7,1c-1,1.1-2.1,2-3.3,2.9c-1.3,0.9-2.7,1.4-4.2,1.7
		c-1.9,0.3-3.8,0.3-5.6,0.1c-0.7-0.1-1.3,0.1-1.9,0.2c-1.5,0.3-2.9,0.7-4.4,1.1c-0.7,0.2-1.3,0.3-2,0.3c-0.4,0-0.7,0-1-0.1
		c0.1-0.2,0.3-0.3,0.5-0.3c1.5,0.1,2.9-0.4,4.4-0.8C82.7,59.9,83.7,59.7,84.7,59.6z"/>
	<path class="st21" d="M84.7,59.6c-0.2,0.2-0.5,0.1-0.8,0.2c-1.3,0.3-2.5,0.6-3.8,0.9c-1,0.2-1.9,0.5-2.9,0.4
		c-0.1,0-0.3,0.1-0.4,0.1c-0.5-0.2-0.6-0.7-0.7-1.1c-0.1-0.4-0.1-0.7,0.1-1c0.2-0.3,0.2-0.5,0.1-0.8c0.6,0.1,1.2,0.4,1.8,0.4
		c0.3,0,0.5,0.2,0.5,0.5c0,0.1,0,0.2,0,0.3c0,0.3-0.1,0.4-0.4,0.4c-0.6,0-1.1,0-1.6-0.3c-0.1,0-0.2-0.1-0.2,0c0,0.1-0.1,0.2,0,0.2
		c0.1,0.4,0.4,0.6,0.7,0.8c0.7,0.3,1.4,0.3,2,0.1c1.2-0.3,2.3-0.6,3.4-0.8C83.3,59.7,84,59.5,84.7,59.6z"/>
	<path class="st22" d="M91.5,45.6c-0.1,0.1-0.2,0.2-0.3,0.1c-0.3-0.2-0.6-0.4-1-0.6c-0.8-0.4-1.6-0.5-2.5-0.6c-0.4,0-0.8,0-1.2,0
		c-0.2,0-0.3,0-0.5,0.2c-0.9,0.4-1.7,0.5-2.6,0c0.5-0.2,0.9-0.5,1.4-0.6c2-0.8,3.9-0.5,5.6,0.7C90.9,45,91.3,45.2,91.5,45.6z"/>
	<path class="st23" d="M83.5,44.7c0.1,0.1,0.2,0.2,0.3,0.2c0.3,0,0.7,0,1-0.1c0.4-0.1,0.9-0.1,1.3-0.1c0.2,0.2,0.4,0.1,0.6,0.2
		c0.4,0.2,0.8,0.5,0.8,1c0,0.2,0.1,0.5,0.2,0.7c-0.2,0-0.4-0.1-0.5-0.3c-0.9-0.7-1.9-1.1-2.9-1.3c-0.4-0.1-0.8,0-1.1-0.1
		C83.2,44.9,83.3,44.7,83.5,44.7z"/>
	<path class="st18" d="M75.8,52.6c0,0.3,0.1,0.6-0.1,0.9C75.6,53.1,75.6,52.8,75.8,52.6z"/>
	<path class="st24" d="M88.8,56.1c0.2,0,0.4,0,0.6-0.1c1.1-0.6,2.2-1,3.2-1.8c0.6-0.5,1.2-1,1.7-1.6c0.3-0.3,0.5-0.8,0.5-1.3
		c0-0.2,0.2-0.2,0.3-0.1c0.7,0.5,0.8,0.8,0.4,1.5c-0.5,0.8-1,1.5-1.8,2.1c-1.1,0.8-2.2,1.4-3.4,2c-0.4,0.2-0.8,0.4-1.2,0.4
		C88.7,56.9,88.5,56.6,88.8,56.1z"/>
	<path class="st25" d="M88.8,56.1c-0.1,0.4,0.2,0.7,0.3,1c0,0.1,0.1,0.3-0.1,0.4c-0.5,0.2-0.9,0.4-1.4,0.6c-0.6,0.2-1.2,0.4-1.7,0.5
		c-0.2,0.1-0.5,0.1-0.6-0.1c-0.3-0.3-0.3-0.7,0-1c0-0.1,0-0.3,0-0.4c0-0.2,0.1-0.4,0.4-0.4c0.7-0.3,1.5-0.5,2.2-0.8
		C88.2,55.7,88.5,55.7,88.8,56.1z"/>
	<path class="st26" d="M85.2,57.5c0,0.3,0,0.7,0,1c-0.5,0.1-1,0.2-1.4,0.3c-1,0.2-2.1,0.5-3.2,0.6c-0.4,0-0.8,0.2-1.3,0.1
		c-0.3,0-0.4-0.1-0.4-0.4c0-0.3,0.1-0.4,0.3-0.4c1.9-0.2,3.6-0.6,5.4-1.1C84.9,57.5,85.1,57.5,85.2,57.5z"/>
	<path class="st27" d="M80.3,46.6c0.6-0.3,1.2-0.5,1.8-0.5c0.4,0,0.7-0.1,1.1-0.1c1.3,0,2.6,0.2,3.7,0.9c0,0.2-0.1,0.4-0.3,0.5
		c-0.7,0.8-1.6,1.2-2.5,1.6c-1,0.4-2,0.6-3,0.6c-0.4,0-0.8-0.1-1.2-0.3c-0.6-0.2-0.9-0.7-0.6-1.6c0.1-0.2,0.3-0.4,0.5-0.6
		C80.1,47,80.2,46.8,80.3,46.6z"/>
	<path class="st23" d="M87.7,46.8c0-0.1,0-0.1,0-0.2C87.8,46.7,87.8,46.7,87.7,46.8z"/>
</g>
</svg>
